<svg width="801" height="801" viewBox="0 0 801 801" fill="none" xmlns="http://www.w3.org/2000/svg">
<rect width="801" height="801" fill="#E5E5E5"/>
<rect x="0.678528" y="430.296" width="707.283" height="93.4114" fill="#0099FF"/>
<path fill-rule="evenodd" clip-rule="evenodd" d="M0.678528 311.51L17.3452 331.308C34.0119 351.105 67.3452 390.701 100.679 374.862C134.012 359.024 167.345 287.753 200.679 283.794C234.012 279.834 267.345 343.186 300.679 347.146C334.012 351.105 367.345 295.672 400.679 260.036C434.012 224.401 467.345 208.563 500.679 216.482C534.012 224.401 567.345 256.077 600.679 287.753C634.012 319.429 667.345 351.105 700.679 343.186C734.012 335.267 767.345 287.753 784.012 263.996L800.679 240.239V430.296H784.012C767.345 430.296 734.012 430.296 700.679 430.296C667.345 430.296 634.012 430.296 600.679 430.296C567.345 430.296 534.012 430.296 500.679 430.296C467.345 430.296 434.012 430.296 400.679 430.296C367.345 430.296 334.012 430.296 300.679 430.296C267.345 430.296 234.012 430.296 200.679 430.296C167.345 430.296 134.012 430.296 100.679 430.296C67.3452 430.296 34.0119 430.296 17.3452 430.296H0.678528V311.51Z" fill="#0099FF"/>
<path fill-rule="evenodd" clip-rule="evenodd" d="M0.678528 361.269L17.6785 392.651C33.6785 424.033 67.6785 486.798 100.679 486.798C133.679 486.798 167.679 424.033 200.679 382.19C233.679 340.348 267.679 319.426 300.679 329.887C333.679 340.348 367.679 382.19 400.679 382.19C433.679 382.19 467.679 340.348 500.679 361.269C533.679 382.19 567.679 465.876 600.679 476.337C633.679 486.798 667.679 424.033 700.679 392.651C733.679 361.269 767.679 361.269 783.679 361.269H800.679V800.62H783.679C767.679 800.62 733.679 800.62 700.679 800.62C667.679 800.62 633.679 800.62 600.679 800.62C567.679 800.62 533.679 800.62 500.679 800.62C467.679 800.62 433.679 800.62 400.679 800.62C367.679 800.62 333.679 800.62 300.679 800.62C267.679 800.62 233.679 800.62 200.679 800.62C167.679 800.62 133.679 800.62 100.679 800.62C67.6785 800.62 33.6785 800.62 17.6785 800.62H0.678528V361.269Z" fill="#1AB5F8"/>
<path fill-rule="evenodd" clip-rule="evenodd" d="M0.678528 384.216L22.6785 417.536C45.3452 450.856 89.3452 517.496 134.012 510.832C178.679 504.168 222.679 424.2 267.345 430.864C312.012 437.528 356.012 530.824 400.679 524.16C445.345 517.496 489.345 410.872 534.012 397.544C578.679 384.216 622.679 464.184 667.345 517.496C712.012 570.808 756.012 597.464 778.679 610.792L800.679 624.12V704.088H778.679C756.012 704.088 712.012 704.088 667.345 704.088C622.679 704.088 578.679 704.088 534.012 704.088C489.345 704.088 445.345 704.088 400.679 704.088C356.012 704.088 312.012 704.088 267.345 704.088C222.679 704.088 178.679 704.088 134.012 704.088C89.3452 704.088 45.3452 704.088 22.6785 704.088H0.678528V384.216Z" fill="#2CD1F5"/>
<path fill-rule="evenodd" clip-rule="evenodd" d="M0.678528 454.237L20.0119 492.724C38.6785 531.211 76.6785 608.185 114.679 621.014C153.345 633.843 191.345 582.527 229.345 588.941C267.345 595.356 305.345 659.501 343.345 659.501C381.345 659.501 420.012 595.356 458.012 588.941C496.012 582.527 534.012 633.843 572.012 646.672C610.012 659.501 648.012 633.843 686.679 595.356C724.679 556.869 762.679 505.553 781.345 479.895L800.679 454.237V800.62H781.345C762.679 800.62 724.679 800.62 686.679 800.62C648.012 800.62 610.012 800.62 572.012 800.62C534.012 800.62 496.012 800.62 458.012 800.62C420.012 800.62 381.345 800.62 343.345 800.62C305.345 800.62 267.345 800.62 229.345 800.62C191.345 800.62 153.345 800.62 114.679 800.62C76.6785 800.62 38.6785 800.62 20.0119 800.62H0.678528V454.237Z" fill="#56EBF4"/>
<rect x="3.17853" y="3.1199" width="795" height="795" stroke="black" stroke-width="5"/>
</svg>
